<?xml version="1.0" encoding="UTF-8"?>
<!DOCTYPE svg PUBLIC "-//W3C//DTD SVG 1.0//EN" "http://www.w3.org/TR/2001/REC-SVG-20010904/DTD/svg10.dtd">
<!-- Creator: CorelDRAW -->
<svg xmlns="http://www.w3.org/2000/svg" xml:space="preserve" width="249px" height="67px" version="1.0" style="shape-rendering:geometricPrecision; text-rendering:geometricPrecision; image-rendering:optimizeQuality; fill-rule:evenodd; clip-rule:evenodd"
viewBox="0 0 249 66.74"
 xmlns:xlink="http://www.w3.org/1999/xlink"
 xmlns:xodm="http://www.corel.com/coreldraw/odm/2003">
 <defs>
  <style type="text/css">
   <![CDATA[
    .fil1 {fill:#FCE8F1}
    .fil0 {fill:black}
    .fil2 {fill:#E2008C;fill-rule:nonzero}
   ]]>
  </style>
 </defs>
 <g id="Layer_x0020_1">
  <metadata id="CorelCorpID_0Corel-Layer"/>
  <g id="_1887723720272">
   <polygon class="fil0" points="237.81,65.14 237.81,1.26 249,1.26 249,65.14 "/>
   <path class="fil0" d="M218.99 37.01c-0.67,-3.02 -2.05,-5.59 -4.17,-7.71 -2.33,-2.32 -5.29,-3.47 -8.86,-3.47 -3.21,0 -6.04,1.02 -8.44,3.07 -2.41,2.04 -3.99,4.74 -4.75,8.11l26.22 0zm10.29 9.27l-36.19 0c0.75,2.84 2.32,5.2 4.67,7.09 2.38,1.9 4.97,2.84 7.78,2.84 4.48,0 7.94,-2.08 10.36,-6.23l12.32 0c-1.18,4.03 -3.49,7.61 -6.95,10.72 -4.45,4.02 -9.57,6.04 -15.36,6.04 -4.79,0 -9.2,-1.31 -13.24,-3.93 -3.94,-2.56 -6.9,-6.04 -8.9,-10.43 -1.63,-3.53 -2.45,-7.25 -2.45,-11.15 0,-5.43 1.5,-10.42 4.5,-14.97 2.45,-3.72 5.58,-6.53 9.41,-8.43 3.36,-1.68 6.89,-2.53 10.59,-2.53 7.49,0 13.61,2.99 18.37,8.98 3.82,4.84 5.73,10.24 5.73,16.2 0,1.51 -0.22,3.46 -0.64,5.8z"/>
   <polygon class="fil0" points="159.62,65.14 159.62,27.75 154.18,27.75 154.18,17.22 159.62,17.22 159.62,1.26 170.81,1.26 170.81,17.22 177.5,17.22 177.5,27.75 170.81,27.75 170.81,65.14 "/>
   <path class="fil0" d="M129.44 65.14l0 -47.92 10.23 0 0 4.26c1.69,-2.25 3.27,-3.78 4.7,-4.61 1.44,-0.83 3.27,-1.25 5.49,-1.25 0.24,0 0.55,0 0.9,0l0 11.2c-3.38,0.11 -5.92,1.12 -7.6,3.02 -1.69,1.88 -2.53,4.68 -2.53,8.38l0 26.92 -11.19 0z"/>
   <path class="fil0" d="M47.73 47.36l13.31 0c-2,4.81 -5.12,8.87 -9.35,12.21 -5.79,4.55 -12.23,6.83 -19.32,6.83 -8.3,0 -15.57,-2.97 -21.77,-8.9 -3.11,-2.92 -5.54,-6.27 -7.33,-10.04 -2.18,-4.6 -3.27,-9.43 -3.27,-14.52 0,-9.17 3.29,-17.03 9.87,-23.58 6.27,-6.24 13.67,-9.36 22.22,-9.36 7.66,0 14.49,2.49 20.45,7.49 2.22,1.84 3.96,3.63 5.23,5.35 1.27,1.74 2.48,3.96 3.65,6.68l-13.05 0c-4.77,-5.66 -10.32,-8.48 -16.68,-8.48 -3.71,0 -7.25,1.16 -10.65,3.51 -3.3,2.24 -5.8,5.26 -7.49,9.03 -1.37,3.06 -2.05,6.23 -2.05,9.5 0,6.15 2.15,11.45 6.45,15.91 4.1,4.25 8.82,6.37 14.19,6.37 2.96,0 5.64,-0.6 8.03,-1.82 2.41,-1.21 4.92,-3.27 7.56,-6.18z"/>
   <path class="fil1" d="M108.07 63.67c6.62,-6.98 11.23,-25.27 6.74,-38.6 -3.56,-8.78 -13.13,-16.79 -23.72,-10.23 -5.15,3.71 -4.67,9.96 -7.15,12.36 -2.84,2.74 -9.47,2.61 -12.62,7.33 -9.33,16.37 17.52,33.84 36.75,29.14z"/>
   <path class="fil2" d="M107.62 62.88c3.31,-3.61 6.08,-10.19 7.36,-17.51 1.16,-6.64 1.08,-13.85 -0.98,-19.97 -0.48,-1.19 -1.07,-2.36 -1.75,-3.46 -1.92,-3.09 -4.59,-5.79 -7.74,-7.32 -3.1,-1.5 -6.68,-1.86 -10.46,-0.32 -0.82,0.33 -1.65,0.75 -2.48,1.26 -2.86,2.07 -3.87,5.09 -4.72,7.65 -0.63,1.87 -1.18,3.52 -2.31,4.61 -1.3,1.26 -3.18,1.93 -5.21,2.65 -2.65,0.95 -5.57,1.99 -7.27,4.51 -1.82,3.2 -2.16,6.44 -1.41,9.53 0.66,2.71 2.17,5.31 4.29,7.69 2.14,2.4 4.89,4.55 8,6.32 7.35,4.19 16.68,6.23 24.68,4.36zm9.08 -17.21c-1.36,7.77 -4.38,14.79 -8,18.59l-0.42 0.25c-8.5,2.08 -18.42,-0.05 -26.2,-4.48 -3.27,-1.86 -6.18,-4.13 -8.44,-6.68 -2.3,-2.57 -3.94,-5.43 -4.68,-8.43 -0.86,-3.52 -0.46,-7.2 1.6,-10.82l0.03 -0.06c2.03,-3.02 5.25,-4.17 8.16,-5.21 1.85,-0.66 3.56,-1.27 4.58,-2.26 0.83,-0.8 1.32,-2.26 1.87,-3.91 0.94,-2.81 2.05,-6.12 5.38,-8.52l0.05 -0.04c0.94,-0.58 1.86,-1.05 2.77,-1.42 4.29,-1.73 8.34,-1.32 11.86,0.38 3.46,1.68 6.38,4.61 8.46,7.97 0.75,1.2 1.39,2.46 1.9,3.72l0.01 0.05c2.17,6.43 2.27,13.96 1.07,20.87z"/>
  </g>
 </g>
</svg>
